<?xml version="1.0" encoding="utf-8"?>
<!-- Generator: Adobe Illustrator 18.0.0, SVG Export Plug-In . SVG Version: 6.00 Build 0)  -->
<!DOCTYPE svg PUBLIC "-//W3C//DTD SVG 1.1//EN" "http://www.w3.org/Graphics/SVG/1.1/DTD/svg11.dtd">
<svg version="1.1" id="_x34_57bf273-24a3-4fd8-a857-e9b918267d6a"
	 xmlns="http://www.w3.org/2000/svg" xmlns:xlink="http://www.w3.org/1999/xlink" x="0px" y="0px" viewBox="9.6 95 651.2 651.3"
	 enable-background="new 9.6 95 651.2 651.3" xml:space="preserve">
<title>profile pic</title>
<g opacity="0.5">
	
		<linearGradient id="SVGID_1_" gradientUnits="userSpaceOnUse" x1="349" y1="250" x2="349" y2="-448" gradientTransform="matrix(0.9375 0 0 0.9375 9.6125 519.6281)">
		<stop  offset="0" style="stop-color:#808080;stop-opacity:0.25"/>
		<stop  offset="0.54" style="stop-color:#808080;stop-opacity:0.12"/>
		<stop  offset="1" style="stop-color:#808080;stop-opacity:0.1"/>
	</linearGradient>
	<circle fill="url(#SVGID_1_)" cx="336.8" cy="426.8" r="327.2"/>
</g>
<circle fill="#F5F5F5" cx="337.5" cy="424.8" r="320.3"/>
<path fill="#2D56A3" d="M337.7,746.3c62.6,0.1,123.8-18.2,176.1-52.7c-11.8-64.5-56.7-68.2-56.7-68.2H209.4c0,0-42.4,3.5-55.6,62.8
	C207.6,726.2,271.9,746.4,337.7,746.3z"/>
<circle fill="#333333" cx="334.4" cy="418" r="154.6"/>
<path opacity="0.1" enable-background="new    " d="M284.4,546.7h99.1l0,0v79.2c0,27.4-22.1,49.5-49.5,49.5l0,0
	c-27.4,0-49.5-22.2-49.5-49.5l0,0L284.4,546.7L284.4,546.7L284.4,546.7z"/>
<path fill="#FDB797" d="M287.6,543.1h92.8c1.8,0,3.2,1.4,3.2,3.2l0,0v76.1c0,27.4-22.1,49.5-49.5,49.5l0,0l0,0
	c-27.4,0-49.5-22.2-49.5-49.5l0,0v-76.1C284.5,544.5,285.9,543.1,287.6,543.1z"/>
<path opacity="0.1" enable-background="new    " d="M284.6,584.1c32,11.9,67,12,99.1,0.3v-12.2h-99.1V584.1z"/>
<circle fill="#FDB797" cx="334.4" cy="448.8" r="142"/>
<path opacity="0.1" enable-background="new    " d="M233.2,319.7c0,0,59.8,121.5,228.7,50.9L422.6,309l-69.7-25L233.2,319.7z"/>
<path fill="#333333" d="M233.2,317.9c0,0,59.8,121.5,228.7,50.9l-39.3-61.6l-69.7-25L233.2,317.9z"/>
<path fill="#333333" d="M232.6,309.6c4-12.5,11-23.8,20.3-33.1c27.9-27.7,73.7-33.5,97.2-64.9c5.6,8.7,1.3,22.1-8.4,25.9
	c22.5-0.2,48.6-2.2,61.3-20.6c6.4,14.9,3.7,32.3-7.1,44.4c20,0.9,41.3,14.4,42.5,34.3c0.8,13.3-7.5,25.9-18.4,33.5
	s-24.1,11.2-37.1,14C345.1,351.5,207.9,386.6,232.6,309.6z"/>
<ellipse fill="#FDB797" cx="192.3" cy="448.7" rx="13.2" ry="24.7"/>
<ellipse fill="#FDB797" cx="476.3" cy="448.7" rx="13.2" ry="24.7"/>
</svg>
