<?xml version="1.0" encoding="utf-8"?>
<!-- Generator: Adobe Illustrator 18.0.0, SVG Export Plug-In . SVG Version: 6.00 Build 0)  -->
<!DOCTYPE svg PUBLIC "-//W3C//DTD SVG 1.1//EN" "http://www.w3.org/Graphics/SVG/1.1/DTD/svg11.dtd">
<svg version="1.1" id="ae7ad495-543d-4c4b-9483-8059c5566fe6"
	 xmlns="http://www.w3.org/2000/svg" xmlns:xlink="http://www.w3.org/1999/xlink" x="0px" y="0px" viewBox="-42 -98 452 374.7"
	 enable-background="new -42 -98 452 374.7" xml:space="preserve">
<title>personalization</title>
<path opacity="0.1" fill="#2D56A3" enable-background="new    " d="M219.6-40.1c-28.3-1-55.3-10.1-81.1-20.1s-51.3-21.1-79-26.4
	C41.7-90.1,21.4-90.6,7.1-81c-13.8,9.2-18.3,25-20.7,39.7c-1.8,11.1-2.8,22.7,2.1,33.1C-8.1-1.1-2,5,2.2,11.9
	C16.9,35.8,6.5,65.4-9.4,88.8c-7.4,11-16.1,21.5-21.8,33.1s-8.4,25.1-3.4,37c5,11.8,16.9,20.7,29.7,26.9
	c26.1,12.7,56.9,16.3,87,18.3c66.5,4.6,133.3,2.6,200,0.6c24.6-0.7,49.4-1.5,73.7-5.3c13.5-2.1,27.4-5.5,37.2-13.6
	c12.4-10.3,15.5-27.8,7.2-40.7c-14-21.7-52.5-27.1-62.3-50.3c-5.4-12.8,0.1-27.1,8-38.9c16.7-25.5,44.8-47.8,46.3-76.9
	c1-20-12.5-40-33.3-49.5c-21.8-9.9-52.2-8.7-68.3,7.7C273.8-45.8,244.6-39.3,219.6-40.1z"/>
<ellipse opacity="0.1" fill="#38D39F" enable-background="new    " cx="174.4" cy="253" rx="133.1" ry="18"/>
<path display="none" fill="#38D39F" d="M108.6,199.4c0,0,9.2-1.5,14.7,5c0,0-4,3.2-12.7-1.2L108.6,199.4z"/>
<path display="none" fill="#38D39F" d="M107.6,199.3c0,0-5.9,7.3-3,15.3c0,0,4.8-1.9,5.3-11.6L107.6,199.3z"/>
<path display="none" fill="#38D39F" d="M102.3,187.4c0,0,3.7-6.7,18.4,2.7c0,0-2,4.6-8.5,4.2C105.8,193.9,104,191,102.3,187.4z"/>
<path display="none" fill="#38D39F" d="M101.4,186.9c0,0-7.6-0.9-8.4,16.6c0,0,4.8,1,8.3-4.5C104.7,193.5,103.3,190.4,101.4,186.9z"
	/>
<path display="none" fill="#38D39F" d="M96.9,173c0,0,4.3-11.9,19.9-3.4c0,0-3.5,10.9-18.3,7.5L96.9,173z"/>
<path display="none" fill="#38D39F" d="M92.1,155.2c0,0,8.1-12,22.5-0.9c0,0-5,11.3-21.2,5.2L92.1,155.2z"/>
<path display="none" fill="#38D39F" d="M90.4,138.3c0,0,9.5-11,23.6,0c0,0-9,9.7-23.6,2.8V138.3z"/>
<path display="none" fill="#38D39F" d="M88.9,121.9c0,0,9.5-11.5,23.2-0.6c0,0-10.8,10.2-23.2,3.3V121.9z"/>
<path display="none" fill="#38D39F" d="M89.8,107.3c0,0,10.1-14.8,22.8-4.8c0,0-10.8,12.7-22.8,7.6V107.3z"/>
<path display="none" fill="#38D39F" d="M92.1,90.3c0,0,10.7-14.7,23-3.4c0,0-12.7,12.7-23,6.1V90.3z"/>
<path display="none" fill="#38D39F" d="M95.7,75c0,0,12.6-13.8,23.6-8.3c0,0-13.2,14.7-24.2,12L95.7,75z"/>
<path display="none" fill="#38D39F" d="M100.1,60.6c0,0,14.6-16.9,23-11.3c0,0-10.7,13.1-24.1,14.4L100.1,60.6z"/>
<path display="none" fill="#38D39F" d="M106.4,43.8c0,0,12.7-13.8,22.1-10.4c0,0-10.9,14.4-23.8,14.7L106.4,43.8z"/>
<path display="none" fill="#38D39F" d="M112.2,28.2c0,0,14.1-13.2,20.2-10.9c0,0-10.2,14.7-20.8,13.8L112.2,28.2z"/>
<path display="none" fill="#38D39F" d="M117.9,13.7c0,0,12.1-15.8,18.7-14.6c0,0-7.4,14.1-18.7,16.2V13.7z"/>
<path display="none" fill="#38D39F" d="M124-5.8c0,0,10.7-12.1,16.5-12.1c0,0-8.5,16.2-16.9,16.1L124-5.8z"/>
<path display="none" fill="#38D39F" d="M127.6-18.8L138-44.1c0,0,0.5,22.8-11.7,29.9L127.6-18.8z"/>
<path display="none" fill="#38D39F" d="M131.8-46.7c0,0,1.7-21.1,0.6-22.8c0,0,7.4,17.5-0.7,32.1L131.8-46.7z"/>
<path display="none" fill="#38D39F" d="M96.5,172.7c0,0-10.7-6.7-17.7,9.6c0,0,9.5,6.3,19-5.5L96.5,172.7z"/>
<path display="none" fill="#38D39F" d="M91.8,154.5c0,0-13.2-6-19.6,11c0,0,10.2,7,20.8-6.7L91.8,154.5z"/>
<path display="none" fill="#38D39F" d="M89.8,139.3c0,0-9.5-11-23.6,0c0,0,8.9,9.7,23.6,2.8V139.3z"/>
<path display="none" fill="#38D39F" d="M88.6,121.9c0,0-9.6-11.5-23.2-0.6c0,0,10.8,10.2,23.2,3.3V121.9z"/>
<path display="none" fill="#38D39F" d="M89.8,107.7c0,0-6.7-16.6-21.3-9.5c0,0,7.9,14.8,20.7,12.2L89.8,107.7z"/>
<path display="none" fill="#38D39F" d="M93,90.2c0,0-6.7-16.9-21.5-9.1c0,0,9.1,15.5,20.8,11.7L93,90.2z"/>
<path display="none" fill="#38D39F" d="M97.1,75.1c0,0-2.6-18.5-14.9-20.2c0,0,2.6,19.5,13.2,23.6L97.1,75.1z"/>
<path display="none" fill="#38D39F" d="M100.4,60.6c0,0-1.1-22.3-11.2-23.1c0,0,0.4,16.9,10,26.3L100.4,60.6z"/>
<path display="none" fill="#38D39F" d="M107.5,43.2c0,0-3-18.6-12.7-20.8c0,0,1.2,18,11.7,25.4L107.5,43.2z"/>
<path display="none" fill="#38D39F" d="M113.4,28.3c0,0-0.1-19.4-6-22.2c0,0-3.7,17.5,4.3,24.6L113.4,28.3z"/>
<path display="none" fill="#38D39F" d="M118.3,13.5c0,0-0.8-19.9-7-22.7c0,0-2.1,15.8,6,24L118.3,13.5z"/>
<path display="none" fill="#38D39F" d="M124.8-4.2c0,0,0-16.2-4.4-20c0,0-4.3,17.7,2.1,23.2L124.8-4.2z"/>
<path display="none" fill="#38D39F" d="M127.1-19.6l-4.2-27c0,0-5.8,22.1,4.5,31.8L127.1-19.6z"/>
<path display="none" fill="#38D39F" d="M127.9-46.4c0,0-10.9-18.1-10.7-20.1c0,0,1.1,19,14.9,28.5L127.9-46.4z"/>
<path display="none" fill="#38D39F" d="M129.2-51.7c0,0-10.3-25.7-15-27.8c0,0,14.7,7.5,15.8,27.1L129.2-51.7z"/>
<path display="none" fill="#444053" d="M123.5-1.7l-0.7-0.2c8.7-28.3,10.9-46.4,6.1-50.9l0.5-0.5C134.4-48.6,132.4-30.8,123.5-1.7z"
	/>
<path display="none" fill="#444053" d="M99.6,64.6l-1.1-0.4c0.9-2.6,1.9-5.3,3-7.8c9.1-22.6,16.8-43.7,21.8-59.8l0.9-0.4
	c-4.9,16.2-12.5,38-21.6,60.6C101.5,59.4,100.5,62.1,99.6,64.6z"/>
<path display="none" fill="#444053" d="M121.5,220.6c-0.1-0.2-14.2-16-24-43.1c-5.7-15.8-9-32.5-9.5-49.4
	c-0.7-21.1,3.8-44.6,11.3-66l0.8,1c-17,48-10.2,89.1-1.3,113.8c9.7,26.8,23.6,42.5,23.8,42.7L121.5,220.6z"/>
<path fill="#3A3768" d="M245.2,38h1.9c0.6,0,1,0.4,1,1v29.9c0,0.6-0.4,1-1,1h-1.9c-0.6,0-1-0.4-1-1V39C244.2,38.4,244.6,38,245.2,38
	z"/>
<path fill="#3A3768" d="M116.3,12.9h0.2c0.6,0,1,0.4,1,1v8.5c0,0.6-0.4,1-1,1h-0.2c-0.6,0-1-0.4-1-1v-8.5
	C115.3,13.4,115.7,12.9,116.3,12.9z"/>
<path fill="#3A3768" d="M116.2,32.2h0.4c0.6,0,1,0.4,1,1v16.3c0,0.6-0.4,1-1,1h-0.4c-0.6,0-1-0.4-1-1V33.2
	C115.2,32.7,115.6,32.2,116.2,32.2z"/>
<path fill="#3A3768" d="M116.3,56.9h0.3c0.6,0,1,0.4,1,1v16.5c0,0.6-0.4,1-1,1h-0.3c-0.6,0-1-0.4-1-1V57.9
	C115.2,57.4,115.7,56.9,116.3,56.9z"/>
<path fill="#3A3768" d="M133.6-21.8h95.6c9.4,0,17.1,7.7,17.1,17.1v229.6c0,9.4-7.7,17.1-17.1,17.1h-95.6c-9.4,0-17.1-7.7-17.1-17.1
	V-4.8C116.5-14.2,124.1-21.8,133.6-21.8z"/>
<path fill="#2D56A3" d="M228-15h-14.9v1.8c0,4.7-3.8,8.5-8.5,8.5l0,0h-47.4c-4.7,0-8.5-3.8-8.5-8.5l0,0V-15h-13.9
	c-5.7,0-10.3,4.6-10.3,10.3l0,0v229.4c0,5.7,4.6,10.3,10.3,10.3h93.1c5.7,0,10.3-4.6,10.3-10.3V-4.7C238.3-10.4,233.7-15,228-15
	L228-15z"/>
<path fill="#E6E8EC" d="M170.6-14h14.7c0.9,0,1.7,0.7,1.7,1.7v0.3c0,0.9-0.7,1.7-1.7,1.7h-14.7c-0.9,0-1.7-0.7-1.7-1.7v-0.4
	C168.9-13.2,169.6-14,170.6-14z"/>
<circle fill="#E6E8EC" cx="191.8" cy="-12.1" r="2.1"/>
<path display="none" fill="#38D39F" d="M291.2-33.4c0,0-36.9-2.2-32.5,23.6c0,0-0.9,4.6,3.3,6.7c0,0,0.1-1.9,3.8-1.3
	c1.3,0.2,2.7,0.3,4,0.2c1.8-0.1,3.5-0.8,4.9-2l0,0c0,0,10.4-4.3,14.4-21.2c0,0,3-3.7,2.8-4.6l-6.2,2.7c0,0,2.1,4.5,0.4,8.2
	c0,0-0.2-8.1-1.4-7.9c-0.3,0-3.2,1.6-3.2,1.6s3.6,7.8,0.9,13.5c0,0,1.1-9.6-2.1-12.9l-4.4,2.5c0,0,4.3,8.1,1.4,14.7
	c0,0,0.7-10.1-2.3-14.1l-4,3.1c0,0,4,8,1.6,13.4c0,0-0.3-11.8-2.4-12.7c0,0-3.5,3.1-4,4.3c0,0,2.8,5.8,1.1,8.8c0,0-1.1-7.8-1.9-7.9
	c0,0-3.5,5.2-3.8,8.8c0,0,0.1-5.3,3-9.2c0,0-3.3,0.6-5.3,2.8c0,0,0.5-3.7,6.1-4c0,0,2.8-3.9,3.6-4.2c0,0-5.6-0.5-9,1.1
	c0,0,3-3.5,10-1.9l3.9-3.2c0,0-7.4-1-10.5,0.1c0,0,3.6-3.1,11.5-0.8l4.2-2.5c0,0-6.3-1.4-10-0.9c0,0,3.9-2.1,11.3,0.2l3.1-1.4
	c0,0-4.6-0.9-6-1.1c-1.4-0.1-1.4-0.5-1.4-0.5c2.9-0.5,5.9-0.1,8.6,1C284.9-30.6,291.3-33,291.2-33.4z"/>
<path display="none" fill="#38D39F" d="M253.4-44.9c0,0-16.6-1-14.7,10.7c0,0-0.4,2.1,1.5,3c0,0,0-0.9,1.7-0.6
	c0.6,0.1,1.2,0.1,1.8,0.1c0.8,0,1.6-0.4,2.2-0.9l0,0c0,0,4.7-1.9,6.5-9.6c0,0,1.4-1.7,1.3-2.1l-2.8,1.2c0,0,1,2,0.2,3.7
	c0,0-0.1-3.6-0.6-3.5c-0.1,0-1.4,0.7-1.4,0.7s1.7,3.5,0.4,6.1c0,0,0.5-4.3-0.9-5.9l-2,1.2c0,0,1.9,3.6,0.6,6.6c0,0,0.4-4.6-1.1-6.3
	l-1.8,1.4c0,0,1.8,3.6,0.7,6.1c0,0-0.1-5.3-1.1-5.7c0,0-1.6,1.4-1.8,2c0,0,1.2,2.6,0.5,4c0,0-0.5-3.5-0.9-3.5c0,0-1.6,2.4-1.7,3.9
	c0.1-1.5,0.5-2.9,1.4-4.2c-0.9,0.2-1.8,0.6-2.4,1.2c0,0,0.3-1.7,2.8-1.8c0,0,1.3-1.8,1.6-1.9c0,0-2.5-0.2-4.1,0.5
	c0,0,1.4-1.6,4.5-0.8l1.8-1.4c0,0-3.3-0.4-4.7,0c0,0,1.6-1.4,5.2-0.4l1.9-1.1c0,0-2.8-0.6-4.5-0.4c0,0,1.8-1,5.1,0.1l1.4-0.6
	c0,0-2.1-0.4-2.7-0.5c-0.6-0.1-0.7-0.2-0.7-0.2c1.3-0.2,2.7-0.1,3.9,0.4C250.5-43.6,253.4-44.7,253.4-44.9z"/>
<rect x="136.1" y="10.1" opacity="0.1" enable-background="new    " width="90.6" height="192.3"/>
<linearGradient id="SVGID_1_" gradientUnits="userSpaceOnUse" x1="-349.4358" y1="-368.9073" x2="-142.5724" y2="-368.9073" gradientTransform="matrix(0.4378 0 0 0.4378 289.1541 339.9997)">
	<stop  offset="0" style="stop-color:#808080;stop-opacity:0.25"/>
	<stop  offset="0.54" style="stop-color:#808080;stop-opacity:0.12"/>
	<stop  offset="1" style="stop-color:#808080;stop-opacity:0.1"/>
</linearGradient>
<path fill="url(#SVGID_1_)" d="M223.9,256.1c0,0-2.1-5-3.1-7.3c-0.5-1.3-1.4-1.5-2.1-1.5l0-0.4l0.2-2.1l0-0.4
	c1.7-0.4,3.1-0.6,3.1-0.6l-1-53.1c0,0-0.4-0.6-1.5-3.9c-0.5-1.7-3.1-3.8-5.4-5.4c-0.4-0.3-0.7-0.5-1.1-0.7c0.9-0.7,1.8-1.4,2.7-2
	c1.4-0.8,1.8-5.3,1.8-5.3l-0.2,0.4c0.2-0.4,0-11.9,0-11.9l-0.8-11.9c0,0-0.6-14.1-4.9-17.8c-4.4-3.7-9.9-5-9.9-5l-3.1-0.8l0,0
	l-5.6-1.4c-0.2-0.3-0.3-0.5-0.4-0.8c0-0.1-0.1-0.2-0.2-0.4c3.5-2.5,5.6-6.5,5.6-10.8c0-0.7,0-1.4-0.2-2.1c0-0.1,0-0.3-0.1-0.4
	c0.5-0.3,0.9-0.7,1.3-1.1c0.7-0.5,1.2-1.2,1.6-2l0,0c0-0.1,0.1-0.3,0.1-0.4c0,0,0-0.1,0-0.1c0,0,0-0.2,0-0.4c0,0,0-0.1,0-0.1
	c0-0.1,0-0.3,0-0.4c0,0,0,0,0-0.1c0-0.1,0-0.3,0-0.4c0,0,0,0,0,0l0,0c-0.1-0.5-0.2-1-0.4-1.5c-0.4-1.1-1-2.2-1.2-3.4
	c-0.3-1.4,0-3-0.7-4.2c-0.6-1-1.5-1.7-2.7-1.8c-1.1-0.2-2.2,0-3.3,0.4c-0.5,0.3-1.1,0.4-1.6,0.4c-0.4,0-0.8-0.1-1.2-0.3
	c-1.3-0.5-2.5-1.2-3.7-2c-0.8-0.7-1.7-1.2-2.6-1.7c-0.9-0.5-2.1-0.5-3-0.1c-1.6,0.8-1.9,3.1-3.4,4.1c-1.1,0.7-2.4,0.6-3.6,0.7
	c-1.2,0-2.7,0.4-3.3,1.4c-0.4,0.7-0.4,1.7-0.3,2.5l0,0.3c0,0.1,0,0.2,0,0.3c0.1,1.1-0.1,2.2-0.5,3.3c-0.6,1.6-1.8,3.2-1.7,4.8l0,0
	c0,0.3,0,0.5,0.1,0.8c0,0.1,0.1,0.3,0.1,0.4l0,0c0.3,0.5,0.5,1.1,0.8,1.6l0,0.1c0,0,0,0.1,0.1,0.2c0,0,0.1,0.2,0.1,0.3
	c0,0.1,0,0.1,0,0.1c0,0,0,0.2,0.1,0.3c0.1,0.3,0.1,0.5,0.1,0.7c0,0.4-0.1,0.7-0.1,1s0.3,0.7,0.6,0.7c0.2,0,0.4,0,0.5-0.2
	c0.4-0.2,0.8-0.5,1.1-0.8c0,0.1,0,0.3,0,0.4c0.3,3.2,1.7,6,4,8.2c0,0.1,0,0.3,0,0.4c0,0.2,0,0.3,0,0.5l0,0l-4.9,1.5
	c0,0,0,0.1,0.1,0.2l-0.5,0.2l0,0c-2.5,1-5.4,2.3-7,3.5c-0.7,0.5-1.4,0.9-1.9,1.3c-2.1,1.3-3.7,3.2-4.6,5.5l-0.1,0.2
	c-0.4,1-2.6,7.8-2.6,7.8s-1.6,3.8-1.8,6.3c0,0-2.6,8.1-1.9,13.5c0,0-2,7.7-1.2,8.9c0,0-0.8,3.3,2.7,6.7c-0.3,0.2-0.5,0.4-0.8,0.5
	c-2.8,1.7-6.7,4.5-7.4,6.7c-1.1,3.4-1.5,3.9-1.5,3.9l-1.1,53c0,0,1.4,0.3,3.1,0.6l0,0.4l0.2,2.1l0,0.4c-0.7,0-1.6,0.2-2.1,1.5
	c-1,2.3-3.1,7.3-3.1,7.3s-4.7,4.4-1.8,8.5c0.1,0.2,0.3,0.4,0.4,0.5c2.1,1.9,6.4,0.7,9.5-0.6c1.6-0.7,2.9-1.8,3.9-3.2
	c0.3-0.4,0.6-0.5,1.1-0.6c0.7-0.1,1.4-0.4,2-0.9c0.7-0.5,1.1-1.3,1.1-2.2c0,0,0,0,0-0.1l-0.3-6.2c0,0-0.4-4.3-1.4-4.1l-0.3,0.1
	l-0.1-0.4l0,0l-0.1-0.8l-0.1-0.4h0.6c0,0,0.1-4.9,2-8.8s3-35.2,3-35.2s22.3,0.4,23-1.7l0,0c0.4,0,0.9,0,1.4,0
	c0.7,2.1,21.8,2.2,21.8,2.2s1.2,31.3,3,35.2c0.4,0.8,0.7,1.7,1,2.6l0,0c0.6,2,0.9,4.1,1,6.2h0.6l-0.1,0.4l-0.1,0.8l-0.1,0.4
	l-0.3-0.1c-1.1-0.3-1.4,4.1-1.4,4.1l-0.3,6.3c0,0.9,0.4,1.7,1.1,2.2c0.6,0.4,1.3,0.7,2,0.9c0.4,0,0.8,0.3,1.1,0.6
	c1,1.4,2.4,2.5,3.9,3.2c3.4,1.3,8.2,2.6,10,0C228.6,260.5,223.9,256.1,223.9,256.1z M167.3,178L167.3,178L167.3,178L167.3,178z
	 M202.5,160.1c0,0,0.6,2.1,1.6,3.2c1,1.1,0.5,8.1,0.5,8.1c-0.4,0-0.8,0.1-1.2,0.2C202.6,167,201.9,161.9,202.5,160.1z"/>
<polygon fill="#8E6F7F" points="154.1,247.5 145.3,248.4 145,245.5 144.8,243.4 144.6,240.5 152.9,240.9 153.6,244.7 153.7,245.5 
	153.7,245.5 "/>
<polygon fill="#8E6F7F" points="218.2,240.9 218,243.9 217.8,245.9 217.5,248.8 208.7,248 209.1,246 209.2,245.2 209.9,241.3 "/>
<path fill="#5F5570" d="M208.9,198.3l-26.2,1.2c-1.2,0-2.4,0-3.6,0l-25-1.2v-19.8h54.8V198.3z"/>
<path opacity="0.1" enable-background="new    " d="M208.9,198.3l-26.2,1.2c-1.2,0-2.4,0-3.6,0l-25-1.2v-19.8h54.8V198.3z"/>
<path fill="#EAEAF2" d="M175.3,125.1c0,0-8.7,2.9-12,5.3c-0.7,0.5-1.3,0.9-1.9,1.2c-2,1.3-3.6,3.2-4.4,5.4c0,0,0,0.1-0.1,0.2
	c-0.4,1-2.5,7.7-2.5,7.7s-1.5,3.7-1.8,6.1s12.5,8.9,12.5,8.9s-6.1,13.4-3.4,16.8c2.7,3.4,42.7,5,41.8,0c-0.9-5-2.4-13.4-1.7-15.7
	l13.6-9.9c0,0-0.6-13.8-4.8-17.4c-4.2-3.6-9.6-4.9-9.6-4.9l-8.5-2.2c0,0-3,7.4-6.3,8.5C183,136,175.8,131.5,175.3,125.1z"/>
<path opacity="0.1" enable-background="new    " d="M187.6,137.6c0,0-3.7,3.1-5.6,0c0,0-1.8,5.2,0,7l-0.1,0.4l-0.3,1.6l-4.1,33.7
	l3.3,5.8l6.1-7.6l-0.5-31.5l-0.2-1.8l0-0.4h1.1C187.2,144.6,189.9,139.8,187.6,137.6z"/>
<path opacity="0.1" enable-background="new    " d="M188.5,137.6c0,0-3.7,3.1-5.6,0c0,0-1.8,5.2,0,7l-0.1,0.4l-0.3,1.6l-4.1,33.7
	l3.3,5.8l6.1-7.6l-0.5-31.5l-0.2-1.8l0-0.4h1.1C188.1,144.6,190.8,139.8,188.5,137.6z"/>
<polygon fill="#BC8487" points="187.4,177.9 181.3,185.5 177.9,179.8 182,146.1 182.3,144.5 182.4,144.1 182.9,142.7 186.6,144.1 
	186.7,144.6 186.9,146.4 "/>
<path opacity="0.1" enable-background="new    " d="M153.6,244.7c-1.9,0-3.8-0.2-5.6-0.6c-0.9-0.2-2.1-0.5-3.1-0.7l-0.3-3l8.3,0.4
	L153.6,244.7z"/>
<path fill="#5F5570" d="M181.3,199.5c-0.7,2.1-22.4,1.7-22.4,1.7s-1.2,30.6-2.9,34.5s-1.9,8.6-1.9,8.6s-3.8,0-6.1-0.6
	c-2.3-0.6-6.1-1.3-6.1-1.3l1-52c0,0,0.4-0.6,1.4-3.9c0.7-2.1,4.5-4.9,7.2-6.6c1.5-0.9,2.6-1.5,2.6-1.5l13,0.5l8,0.3
	C175.1,179.3,182.1,197.5,181.3,199.5z"/>
<path opacity="0.1" enable-background="new    " d="M154.1,247.5l-8.8,0.9l-0.3-2.9c0.4,0,0.7,0.1,1,0.2c1.6,1.1,6.2,0.2,7.7-0.1
	l0,0L154.1,247.5z"/>
<path fill="#BC8487" d="M155.7,256.1c0,0.8-0.4,1.7-1.1,2.1c-0.6,0.4-1.2,0.7-1.9,0.8c-0.4,0-0.8,0.3-1,0.6c-1,1.4-2.3,2.5-3.9,3.1
	c-3,1.2-7.3,2.4-9.3,0.5c-0.2-0.1-0.3-0.3-0.4-0.5c-2.8-4,1.8-8.3,1.8-8.3s2.1-4.9,3-7.1c0.4-1.1,1.7-1.8,2.8-1.4
	c0.1,0,0.1,0,0.2,0.1c1.8,1.3,7,0,8.1-0.2c1.1-0.3,1.4,4,1.4,4L155.7,256.1C155.7,256,155.7,256,155.7,256.1z"/>
<path opacity="0.1" enable-background="new    " d="M218.2,240.9l-0.3,3c-1.1,0.2-2.2,0.5-3.1,0.7c-1.8,0.4-3.7,0.6-5.6,0.6l0.7-3.8
	L218.2,240.9z"/>
<path fill="#5F5570" d="M221,242.8c0,0-3.8,0.7-6.1,1.3c-2.3,0.6-6.1,0.6-6.1,0.6s-0.1-4.8-1.9-8.6s-2.9-34.5-2.9-34.5
	s-20.5-0.1-21.2-2.1c-0.7-2,8.9-19.7,8.9-19.7l5.9-0.3l11.2-0.6c0,0,2.2,1.2,4.5,2.8c2.3,1.6,4.8,3.6,5.3,5.3c1,3.3,1.4,3.9,1.4,3.9
	L221,242.8z"/>
<path opacity="0.1" enable-background="new    " d="M217.8,245.9l-0.3,2.9l-8.8-0.9l0.4-2c1.6,0.4,6.1,1.3,7.7,0.1
	C217.1,246,217.4,245.9,217.8,245.9z"/>
<path fill="#BC8487" d="M216.8,246.6c1.1-0.5,2.4,0,2.9,1.1c0,0.1,0.1,0.1,0.1,0.2c0.9,2.2,3,7.1,3,7.1s4.6,4.3,1.8,8.3
	c-1.8,2.5-6.5,1.2-9.7,0c-1.5-0.7-2.9-1.8-3.9-3.1c-0.3-0.3-0.6-0.5-1-0.6c-0.7-0.1-1.4-0.4-1.9-0.9c-0.7-0.5-1.1-1.3-1-2.1l0.3-6.1
	c0,0,0.4-4.2,1.4-4C209.8,246.6,215.1,247.8,216.8,246.6z"/>
<path fill="#FFC4D0" d="M194.2,128.8l-8.8,9.4l-0.3,0.3l-0.3-0.2c-1.8-1.1-11.1-6.7-10.3-8.4c0.4-1,0.7-2.9,0.8-4.6
	c0-0.2,0-0.4,0-0.6c0.1-1.4,0.1-2.4,0.1-2.4s16.6-2.8,16,0c-0.3,1.1,0.1,2.5,0.7,3.6c0.2,0.4,0.4,0.7,0.5,0.9
	C193.1,127.4,193.6,128.1,194.2,128.8z"/>
<path opacity="0.1" enable-background="new    " d="M192.1,125.8c-5.1,3.8-12.2,3.3-16.8-1.2c0.1-1.4,0.1-2.4,0.1-2.4s16.6-2.8,16,0
	C191.2,123.4,191.6,124.7,192.1,125.8z"/>
<path fill="#FFC4D0" d="M197.4,114.9c0.1,7.2-5.6,13.1-12.8,13.2c-6.8,0.1-12.6-5.1-13.1-12c0-0.4,0-0.8,0-1.2
	c-0.1-7.2,5.6-13.1,12.7-13.2c7.2-0.1,13.1,5.6,13.2,12.7C197.4,114.6,197.4,114.7,197.4,114.9L197.4,114.9z"/>
<path opacity="0.1" enable-background="new    " d="M197.3,112.8c-0.7,0.6-1.6,0.8-2.5,0.7c-2-0.4-2.7-3.5-4.7-3.7
	c-2.1-0.2-3.4,2.6-5.5,2.6c-0.9,0-1.7-0.6-2.5-1c-1.4-0.7-3.7-1.1-5.3-0.6c-2.3,0.8-3.1,2.9-4.5,4.6c-0.3,0.3-0.5,0.6-0.8,0.8
	c0-0.4,0-0.8,0-1.2c0-7.2,5.7-13,12.9-13.1C190.8,101.7,196.3,106.4,197.3,112.8L197.3,112.8z"/>
<path fill="#8E6F7F" d="M182.1,110.9c0.8,0.4,1.6,1,2.5,1c2.1,0,3.4-2.8,5.5-2.6c2.1,0.2,2.8,3.3,4.7,3.7c1.4,0.3,2.6-0.7,3.6-1.7
	c0.7-0.5,1.2-1.2,1.6-1.9c0.4-1.1,0.2-2.3-0.2-3.5c-0.4-1.1-1-2.1-1.2-3.3c-0.3-1.4,0-2.9-0.6-4.2c-0.6-1-1.5-1.6-2.6-1.8
	c-1.1-0.2-2.2,0-3.2,0.4c-0.5,0.2-1.1,0.4-1.6,0.4c-0.4,0-0.8-0.1-1.2-0.3c-1.3-0.5-2.5-1.1-3.6-1.9c-0.8-0.7-1.7-1.2-2.5-1.7
	c-0.9-0.5-2-0.5-2.9-0.1c-1.6,0.8-1.9,3.1-3.3,4c-1,0.7-2.3,0.6-3.5,0.7c-1.2,0-2.6,0.4-3.2,1.4c-0.5,0.9-0.3,2.1-0.2,3.1
	c0,1.1-0.1,2.2-0.5,3.2c-0.7,1.8-2.1,3.6-1.6,5.5c0.3,1.2,1.4,2.2,1.4,3.5c0,0.3-0.1,0.7-0.1,1c0,0.4,0.3,0.6,0.6,0.7
	c0.2,0,0.4,0,0.5-0.2c0.7-0.4,1.4-0.9,1.9-1.6c1.5-1.7,2.2-3.8,4.6-4.6C178.4,109.8,180.7,110.2,182.1,110.9z"/>
<path fill="#FFC4D0" d="M197.2,187.3l-2.4,0.7l-5.5,1.5c-1.3,1-2.7,1.7-4.2,2.1c-3.3,0.8-5.5-1-7.3-3.9c-0.7-1.1-0.4-2.1,0.6-2.8
	c2.3-1.7,7.9-2.3,9.6-2.1c1.1,0.1,2.3-0.1,3.3-0.5c0.7-0.3,1.4-0.6,2.1-1L197.2,187.3z"/>
<path opacity="0.1" enable-background="new    " d="M197.2,187.3l-2.4,0.7c-0.7-2.1-1.8-4.6-3.4-5.6c0.7-0.3,1.4-0.6,2.1-1
	L197.2,187.3z"/>
<path opacity="0.1" enable-background="new    " d="M213.2,181.7c-1,0.8-1.8,1.5-1.8,1.5s-11.4,3.6-13.6,8.1c0,0-1.8-8.8-5.5-8.9
	c0,0,4-1.6,5.2-2.9l11.2-0.6C208.7,178.9,210.9,180.1,213.2,181.7z"/>
<path fill="#EAEAF2" d="M213,147.4l2.5,3.7l0.8,11.6c0,0,0.2,11.2,0,11.6l0.2-0.4c0,0-0.4,4.4-1.8,5.2c-1.3,0.8-4.3,3.3-4.3,3.3
	s-11.4,3.6-13.6,8.1c0,0-1.8-8.8-5.5-8.9c0,0,5.6-2.2,5.5-3.6c0,0,4.3-3.9,4.6-4.8c0.3-1,2.5-1.1,2.5-1.1s0.5-6.8-0.5-7.9
	c-1-1.1-1.5-3.2-1.5-3.2L213,147.4z"/>
<path opacity="0.1" enable-background="new    " d="M185.2,191.6c-3.3,0.8-5.5-1-7.3-3.9c-0.7-1.1-0.4-2.1,0.6-2.8l0.4,0.1
	C178.8,185.1,184.8,187.7,185.2,191.6z"/>
<path fill="#FFC4D0" d="M183.8,195c-3.9,5.5-11.3-2.1-11.8-3.7c-0.2-0.6-1-1.1-1.8-1.4c-1.1-0.5-2.2-0.9-3.4-1.1l6.5-5.3l1.2,0.5
	l3.9,1.5C178.4,185.5,187.7,189.6,183.8,195z"/>
<path opacity="0.1" enable-background="new    " d="M174.5,184c-3.6,1.7-4.4,4.2-4.4,5.9c-1.1-0.5-2.2-0.9-3.4-1.1l6.5-5.3
	L174.5,184z"/>
<path opacity="0.1" enable-background="new    " d="M168.8,193.4c0,0-10.5-8.3-15.5-12c-0.6-0.4-1.2-1-1.8-1.5
	c1.5-0.9,2.6-1.5,2.6-1.5l13,0.5c0.4,0.6,0.6,1,0.6,1l7,4.6C166.2,187.3,168.8,193.4,168.8,193.4z"/>
<path fill="#EAEAF2" d="M154.8,149.8l-2.1,1.2c0,0-2.5,8-1.9,13.3c0,0-2,7.6-1.2,8.8c0,0-1,4.1,4.1,7.7c5.1,3.6,15.5,12,15.5,12
	s-2.6-6.1,5.8-8.9l-7-4.6c0,0-2.4-4.7-4.6-5.7c0,0-1.8-1.8-0.7-3c1.1-1.2,2-2.5,2-3.7c0-1.2,0.4-6.9,0.4-6.9l1.3-6.1L154.8,149.8z"
	/>
<path opacity="0.1" enable-background="new    " d="M186.7,144.6h-4.3c0,0,0,0-0.1-0.1l0.1-0.4l0.6-1.4l3.7,1.4L186.7,144.6z"/>
<path fill="#BC8487" d="M188,137.2c0,0-3.7,3.1-5.6,0c0,0-1.8,5.2,0,7h5.3C187.6,144.1,190.4,139.4,188,137.2z"/>
<path opacity="0.1" enable-background="new    " d="M193,127l5.5,1.4c0,0-5.2,13.6-6.4,13.6l-6.6-3.2L193,127z"/>
<path opacity="0.1" enable-background="new    " d="M194.2,128.8l-8.8,9.4l-0.3,0.3l-0.3-0.2l7.7-11.8l0.2,0.3
	C193.1,127.5,193.6,128.1,194.2,128.8z"/>
<path fill="#EAEAF2" d="M192.6,126.6l5.5,1.4c0,0-5.2,13.6-6.4,13.6l-6.6-3.2L192.6,126.6z"/>
<path opacity="0.1" enable-background="new    " d="M174.9,125.5l-4.8,1.5c0,0,4.7,14.2,6,15l8.5-3.2L174.9,125.5z"/>
<path opacity="0.1" enable-background="new    " d="M185.3,138.2l-0.3,0.3c0,0-11.5-6.7-10.6-8.5c0.4-1,0.7-2.9,0.8-4.6V125
	L185.3,138.2z"/>
<path fill="#EAEAF2" d="M175.3,125.1l-4.8,1.5c0,0,4.7,14.2,6,15l8.5-3.2L175.3,125.1z"/>
<path opacity="0.1" enable-background="new    " d="M163.9,148.3c0,0,2.9,0.5,2.8,3.5c0,3,1.2-3.9,1.2-3.9L163.9,148.3z"/>
<path opacity="0.1" enable-background="new    " d="M164.6,157.5c0,0-0.8,4.5,0,8.6c0.8,4.1,0.7,5.5,1.4,5.7
	C166.6,172,164.6,157.5,164.6,157.5z"/>
<path opacity="0.1" enable-background="new    " d="M201.4,157.1c-0.9,0.1-1.5,0.9-1.4,1.8c0,0.1,0,0.2,0,0.3
	C200.4,161,201.4,157.1,201.4,157.1z"/>
<path opacity="0.1" enable-background="new    " d="M151.3,172.4c0,0,9.4-0.8,10.9,0.9S151.3,172.4,151.3,172.4z"/>
<path opacity="0.1" enable-background="new    " d="M205.7,173c0,0,6.9-0.8,8.5,0.3"/>
<path opacity="0.1" enable-background="new    " d="M208.5,174.1c0,0,4.1,0.1,5,0.7"/>
<path opacity="0.1" enable-background="new    " d="M209.3,175.6c0,0,3.7-0.1,4.2,0.4"/>
<path opacity="0.1" enable-background="new    " d="M156.8,196.2c0,0,3.2,1.7,2.8,3.4C159.3,201.3,156.8,196.2,156.8,196.2z"/>
<path opacity="0.1" enable-background="new    " d="M154.1,197c0,0,4.9,6.3,4.2,8.4C157.6,207.5,154.1,197,154.1,197z"/>
<path opacity="0.1" enable-background="new    " d="M206.2,198c0,0-2.4,2-2.3,3.6"/>
<path opacity="0.1" enable-background="new    " d="M150.6,237.1c0,0,0,1.9,3.5,4.6"/>
<path opacity="0.1" enable-background="new    " d="M211.4,232.8c0,0-0.4,3.9-3.7,5.9"/>
<g opacity="0.1">
	<path d="M170.1,101.4c0-0.3,0-0.6-0.1-0.9c0,0.7,0,1.4,0,2C170.1,102.1,170.1,101.8,170.1,101.4z"/>
	<path d="M169.4,113.6c0.1-1.3-1.1-2.3-1.4-3.5c0,0,0-0.1,0-0.2c-0.1,0.5-0.1,1,0,1.5c0.3,1,1.1,1.9,1.3,2.8
		C169.4,114,169.4,113.9,169.4,113.6z"/>
	<path d="M200,108.2c-0.4,0.7-0.9,1.4-1.6,1.9c-1,0.9-2.3,2-3.6,1.7c-2-0.4-2.7-3.5-4.7-3.7c-2.1-0.2-3.4,2.6-5.5,2.6
		c-0.9,0-1.7-0.6-2.5-1c-1.4-0.7-3.7-1.1-5.3-0.6c-2.3,0.8-3.1,2.9-4.6,4.6c-0.6,0.6-1.2,1.1-1.9,1.6c-0.1,0.1-0.3,0.1-0.5,0.2
		c-0.2,0-0.4-0.2-0.5-0.4v0c0,0.3-0.1,0.7-0.1,1c0,0.4,0.3,0.6,0.6,0.7c0.2,0,0.4,0,0.5-0.2c0.7-0.4,1.4-0.9,1.9-1.6
		c1.5-1.7,2.2-3.8,4.6-4.6c1.5-0.5,3.9-0.1,5.3,0.6c0.8,0.4,1.6,1,2.5,1c2.1,0,3.4-2.8,5.5-2.6c2.1,0.2,2.8,3.2,4.7,3.7
		c1.4,0.3,2.6-0.7,3.6-1.7c0.7-0.5,1.2-1.2,1.6-1.9c0.3-0.6,0.3-1.3,0.2-2C200.2,107.7,200.1,107.9,200,108.2z"/>
</g>
<path opacity="0.1" enable-background="new    " d="M140,254.5c0,0,3.6-1.1,5.1,1"/>
<path opacity="0.1" enable-background="new    " d="M222.8,254.9c0,0-5.9-0.4-5.7,1.3"/>
<ellipse opacity="0.1" fill="#38D39F" enable-background="new    " cx="341.1" cy="249.7" rx="11.8" ry="2"/>
<ellipse opacity="0.1" fill="#38D39F" enable-background="new    " cx="2.6" cy="266" rx="11.8" ry="2"/>
<ellipse opacity="0.1" fill="#38D39F" enable-background="new    " cx="48.3" cy="276.7" rx="11.8" ry="2"/>
<ellipse display="none" fill="#38D39F" cx="315.3" cy="271" rx="17.6" ry="3"/>
<path display="none" fill="#38D39F" d="M322.6,266.2c0.8-0.7,1.4-1.5,1.7-2.5c0.2-1-0.2-2.2-1.2-2.6c-1.1-0.4-2.2,0.4-3.1,1.1
	c-0.9,0.7-1.9,1.6-3,1.4c1.2-1.1,1.8-2.7,1.4-4.3c0-0.3-0.2-0.6-0.4-0.9c-0.6-0.7-1.7-0.4-2.4,0.1c-2.3,1.6-2.9,4.7-2.9,7.5
	c-0.2-1,0-2.1,0-3.1s-0.3-2.2-1.1-2.7c-0.5-0.3-1.1-0.4-1.8-0.4c-1,0-2.1,0.1-2.8,0.8c-0.9,0.9-0.7,2.5,0.1,3.5c0.7,1,1.9,1.7,3,2.4
	c0.8,0.5,1.6,1.2,2.1,2c0,0.1,0.1,0.2,0.2,0.4h6.4C320.1,268.2,321.4,267.3,322.6,266.2z"/>
<path display="none" fill="#38D39F" d="M48.8,227.8c0,0,2.4,3.2-1.1,7.9c-3.5,4.7-6.4,8.8-5.3,11.7c0,0,5.3-8.8,9.6-8.9
	S53.6,233.1,48.8,227.8z"/>
<path opacity="0.1" enable-background="new    " d="M48.8,227.8c0.2,0.3,0.4,0.7,0.5,1c4.2,4.9,6.5,9.5,2.4,9.7
	c-3.8,0.1-8.3,6.9-9.4,8.5c0,0.1,0.1,0.3,0.1,0.4c0,0,5.3-8.8,9.6-8.9S53.6,233.1,48.8,227.8z"/>
<path fill="#FFD037" d="M53.3,231.8c0,1.1-0.1,2-0.3,2c-0.1,0-0.3-0.9-0.3-2c0-1.1,0.2-0.6,0.3-0.6
	C53.3,231.2,53.3,230.7,53.3,231.8z"/>
<path fill="#FFD037" d="M54.9,233.1c-1,0.5-1.8,0.8-1.9,0.7c0-0.1,0.7-0.7,1.6-1.2c1-0.6,0.6-0.1,0.7,0S55.8,232.5,54.9,233.1z"/>
<path display="none" fill="#38D39F" d="M36.1,227.8c0,0-2.4,3.2,1.1,7.9c3.5,4.7,6.4,8.8,5.3,11.7c0,0-5.3-8.8-9.6-8.9
	S31.4,233.1,36.1,227.8z"/>
<path opacity="0.1" enable-background="new    " d="M36.1,227.8c-0.2,0.3-0.4,0.7-0.5,1c-4.2,4.9-6.4,9.5-2.4,9.7
	c3.8,0.1,8.3,6.9,9.4,8.5c0,0.1-0.1,0.3-0.1,0.4c0,0-5.3-8.8-9.6-8.9S31.4,233.1,36.1,227.8z"/>
<path fill="#FFD037" d="M31.7,231.8c0,1.1,0.1,2,0.3,2s0.3-0.9,0.3-2c0-1.1-0.2-0.6-0.3-0.6C31.8,231.2,31.7,230.7,31.7,231.8z"/>
<path fill="#FFD037" d="M30.1,233.1c1,0.5,1.8,0.8,1.9,0.7c0.1-0.1-0.7-0.7-1.6-1.2s-0.6-0.1-0.7,0S29.2,232.5,30.1,233.1z"/>
<path display="none" fill="#A8A8A8" d="M32.5,247c0,0,6.7-0.2,8.8-1.7c2-1.4,10.3-3.2,10.9-0.9c0.5,2.3,10.1,11.5,2.5,11.6
	c-7.6,0-17.6-1.2-19.7-2.4C32.9,252.3,32.5,247,32.5,247z"/>
<path display="none" opacity="0.2" enable-background="new    " d="M54.7,255.2c-7.6,0-17.6-1.2-19.7-2.4c-1.5-1-2.1-4.3-2.4-5.9
	h-0.2c0,0,0.4,5.4,2.5,6.7c2,1.2,12.1,2.5,19.7,2.4c2.2,0,2.9-0.8,2.9-2C57.1,254.8,56.3,255.2,54.7,255.2z"/>
</svg>
